<?xml version="1.0" encoding="utf-8"?>
<!-- Generator: Adobe Illustrator 26.3.1, SVG Export Plug-In . SVG Version: 6.00 Build 0)  -->
<svg version="1.1" id="Layer_1" xmlns="http://www.w3.org/2000/svg" xmlns:xlink="http://www.w3.org/1999/xlink" x="0px" y="0px"
	 viewBox="0 0 24 24" style="enable-background:new 0 0 24 24;" xml:space="preserve">
<style type="text/css">
	.st0{fill:#23B33A;}
</style>
<path class="st0" d="M10.6,16.6l7-7.1l-1.4-1.4l-5.6,5.7l-2.9-2.9l-1.4,1.4L10.6,16.6z M12,22c-1.4,0-2.7-0.3-3.9-0.8
	c-1.2-0.5-2.3-1.2-3.2-2.1s-1.6-2-2.1-3.2C2.3,14.7,2,13.4,2,12s0.3-2.7,0.8-3.9C3.3,6.9,4,5.8,4.9,4.9s2-1.6,3.2-2.1
	C9.3,2.3,10.6,2,12,2s2.7,0.3,3.9,0.8c1.2,0.5,2.3,1.2,3.2,2.1s1.6,2,2.1,3.2C21.7,9.3,22,10.6,22,12s-0.3,2.7-0.8,3.9
	c-0.5,1.2-1.2,2.3-2.1,3.2s-2,1.6-3.2,2.1C14.7,21.7,13.4,22,12,22z M12,12L12,12L12,12L12,12L12,12L12,12L12,12L12,12L12,12z
	 M12,20c2.2,0,4.1-0.8,5.7-2.3c1.6-1.6,2.3-3.4,2.3-5.7s-0.8-4.1-2.3-5.7C16.1,4.8,14.2,4,12,4S7.9,4.8,6.3,6.3C4.8,7.9,4,9.8,4,12
	s0.8,4.1,2.3,5.7C7.9,19.2,9.8,20,12,20z"/>
</svg>
