<svg xmlns="http://www.w3.org/2000/svg" xmlns:xlink="http://www.w3.org/1999/xlink" width="199.487" height="127" viewBox="0 0 199.487 127">
  <defs>
    <clipPath id="clip-path">
      <rect id="Rectangle_35" data-name="Rectangle 35" width="199.487" height="127" fill="#fff"/>
    </clipPath>
  </defs>
  <g id="Group_9" data-name="Group 9" transform="translate(-710 50)">
    <g id="Group_8" data-name="Group 8" transform="translate(710 -50)" clip-path="url(#clip-path)">
      <text id="MINK" transform="translate(26.458 108.822)" fill="#13171a" font-size="39" font-family="ProximaNova-Bold, Proxima Nova" font-weight="700"><tspan x="0" y="0" letter-spacing="0.2em">MIN</tspan><tspan y="0">K</tspan></text>
      <path id="Path_1" data-name="Path 1" d="M46.532,54.955A30.2,30.2,0,0,1,22.525,32.6a19.533,19.533,0,0,0-9.168-11.672c-1.7-1-3.655-2.038-5.851-3.242a15.731,15.731,0,0,1-3.918-2.95A8.8,8.8,0,0,1,1.122,8.965c-5.4-4.5,10.094-5.89,16.3-7.913A11.85,11.85,0,0,1,27.986,2.457,10.475,10.475,0,0,1,35.4.029s.545.826,1.331,2.011a.984.984,0,0,1,.057.992l-1.125,2.2a14.2,14.2,0,0,1,7.1,8.295v0l.008.025a13.6,13.6,0,0,0,13.532,9.563C64.938,11.621,79.371,3.6,94.853,3.6c21.121,0,38.747,13.043,44.813,32.107a18.369,18.369,0,0,0,1.916,4.35,17.893,17.893,0,0,0,15.035,8.316,218.9,218.9,0,0,0,40.847-4.88l2.024,8.5a187.688,187.688,0,0,1-37.632,6.069,36.26,36.26,0,0,1-21.705-5.4l-.135,6.744L124.1,71.954H110.881V68.447l10.385-2.293,4.171-8.767-.032-.055A42.871,42.871,0,0,0,92.459,41.943c-12.544,0-23.751,4.84-31.6,13.414l-.16,5.9L44.779,72.089H31.56V68.582l10.386-2.293Z" transform="translate(0 0)" fill="#fff"/>
    </g>
  </g>
</svg>
