<?xml version="1.0" encoding="utf-8"?>
<!-- Generator: Adobe Illustrator 26.3.1, SVG Export Plug-In . SVG Version: 6.00 Build 0)  -->
<svg version="1.1" id="Layer_1" xmlns="http://www.w3.org/2000/svg" xmlns:xlink="http://www.w3.org/1999/xlink" x="0px" y="0px"
	 viewBox="0 0 24 24" style="enable-background:new 0 0 24 24;" xml:space="preserve">
<style type="text/css">
	.st0{fill:#BB0B06;}
</style>
<path class="st0" d="M3,16c-0.5,0-1-0.2-1.4-0.6C1.2,15,1,14.5,1,14v-2c0-0.1,0-0.2,0-0.4c0-0.1,0.1-0.3,0.1-0.4l3-7.1
	c0.1-0.3,0.4-0.6,0.8-0.8C5.2,3.1,5.6,3,6,3h11v13l-7,7l-1.2-1.2c-0.1-0.1-0.2-0.3-0.3-0.5c-0.1-0.2-0.1-0.4-0.1-0.6v-0.4L9.4,16H3z
	 M15,5H6l0,0l0,0l-3,7v2l0,0l0,0h9l-1.4,5.5l4.4-4.4V5z M15,15.1V14l0,0l0,0v-2V5l0,0l0,0V15.1z M17,16v-2h3V5h-3V3h5v13H17z"/>
</svg>
